<svg xmlns="http://www.w3.org/2000/svg" viewBox="0 0 512 512">
  <defs>
    <linearGradient id="bg" x1="0%" y1="0%" x2="100%" y2="100%">
      <stop offset="0%" style="stop-color:#1a1a1a"/>
      <stop offset="100%" style="stop-color:#2a2a2a"/>
    </linearGradient>
    <linearGradient id="petal" x1="0%" y1="0%" x2="100%" y2="100%">
      <stop offset="0%" style="stop-color:#f4a0b5"/>
      <stop offset="100%" style="stop-color:#e87da0"/>
    </linearGradient>
    <linearGradient id="leaf" x1="0%" y1="0%" x2="100%" y2="100%">
      <stop offset="0%" style="stop-color:#34d399"/>
      <stop offset="100%" style="stop-color:#10b981"/>
    </linearGradient>
  </defs>
  <rect width="512" height="512" rx="96" fill="url(#bg)"/>
  <!-- Stem -->
  <path d="M256 280 L256 420" stroke="url(#leaf)" stroke-width="12" stroke-linecap="round"/>
  <!-- Leaves -->
  <path d="M256 340 Q220 310 210 340 Q220 370 256 350" fill="url(#leaf)"/>
  <path d="M256 360 Q292 330 302 360 Q292 390 256 370" fill="url(#leaf)"/>
  <!-- Petals -->
  <ellipse cx="256" cy="200" rx="38" ry="60" fill="url(#petal)" transform="rotate(0 256 240)"/>
  <ellipse cx="256" cy="200" rx="38" ry="60" fill="url(#petal)" transform="rotate(60 256 240)"/>
  <ellipse cx="256" cy="200" rx="38" ry="60" fill="url(#petal)" transform="rotate(120 256 240)"/>
  <ellipse cx="256" cy="200" rx="38" ry="60" fill="url(#petal)" transform="rotate(180 256 240)"/>
  <ellipse cx="256" cy="200" rx="38" ry="60" fill="url(#petal)" transform="rotate(240 256 240)"/>
  <ellipse cx="256" cy="200" rx="38" ry="60" fill="url(#petal)" transform="rotate(300 256 240)"/>
  <!-- Center -->
  <circle cx="256" cy="240" r="24" fill="#c9a84c"/>
  <circle cx="256" cy="240" r="16" fill="#e8c96a"/>
  <!-- Text -->
  <text x="256" y="472" text-anchor="middle" font-family="serif" font-style="italic" font-size="36" fill="#ffffff" opacity="0.9">F4S</text>
</svg>
